<?xml version="1.0" encoding="UTF-8"?>
<svg id="Layer_2" data-name="Layer 2" xmlns="http://www.w3.org/2000/svg" viewBox="0 0 362.654 33.501">
  <g id="Layer_1-2" data-name="Layer 1">
    <g>
      <g>
        <path d="M35.035.788h-6.511l-.082.18-10.59,23.218-.008.017-.006.019c-.139.44-.237.758-.315,1.03-.074-.304-.175-.599-.357-1.053-.004-.009-10.198-23.228-10.198-23.228l-.081-.183H0v32.054h5.614V11.008c.166.458.377.95.662,1.591-.001-.003,8.68,20.057,8.68,20.057l.08.186h4.346l.081-.181,9.669-21.375c.304-.663.504-1.136.664-1.574v23.13h5.547V.788h-.307Z"/>
        <path d="M56.07,28.676c-6.761,0-11.86-5.1-11.86-11.862,0-6.724,5.099-11.794,11.86-11.794,6.725,0,11.796,5.07,11.796,11.794,0,6.762-5.071,11.862-11.796,11.862M56.07.196c-10.278,0-17.736,6.99-17.736,16.619s7.458,16.619,17.736,16.619,17.737-6.989,17.737-16.619S66.348.196,56.07.196"/>
        <path d="M87.115,5.546c3.535,0,3.9.059,4.88.794l.172-.229-.17.23c1.183.872,1.782,2.183,1.782,3.896,0,1.629-.496,2.796-1.608,3.782-1.282,1.099-1.849,1.238-5.057,1.238h-4.627V5.546h4.627ZM101.053,32.366l-8.435-12.844c4.307-.924,7.17-4.67,7.17-9.482,0-5.967-4.267-9.252-12.014-9.252h-10.897v32.054h5.613v-12.825h4.063l8.198,12.685.09.14h6.526l-.313-.476Z"/>
        <path d="M133.694,18.152h-5.306v9.98c-2.768.466-4.139.611-5.744.611-7.961,0-13.965-5.269-13.965-12.255,0-6.575,5.523-11.532,12.847-11.532,2.289,0,5.254.598,7.38,1.489.444.19,1.161.582,2.131,1.164l.283.17.149-.295,2.105-4.143.138-.273-.272-.14c-2.12-1.091-3.101-1.524-4.735-1.932-1.945-.432-4.947-.733-7.311-.733-5.16,0-9.88,1.666-13.292,4.689-3.418,3.029-5.299,7.219-5.299,11.798,0,4.645,1.929,8.899,5.432,11.979,3.499,3.076,8.336,4.772,13.621,4.772,2.551,0,6.391-.49,9.341-1.192.494-.11,1.158-.307,1.999-.555l.586-.175.221-.064v-13.363h-.307Z"/>
      </g>
      <polygon points="158.432 28.084 143.876 28.084 143.876 18.767 155.538 18.767 155.845 18.767 155.845 18.459 155.845 14.315 155.845 14.008 155.538 14.008 143.876 14.008 143.876 5.547 158.038 5.547 158.345 5.547 158.345 5.239 158.345 1.095 158.345 .788 158.038 .788 138.569 .788 138.262 .788 138.262 1.095 138.262 32.534 138.262 32.842 138.569 32.842 158.432 32.842 158.739 32.842 158.739 32.534 158.739 28.392 158.739 28.084 158.432 28.084"/>
      <g>
        <path d="M192.122.788h-4.844v23.674c-.207-.43-.445-.841-.695-1.186-.007-.009-17.765-22.372-17.765-22.372l-.092-.116h-5.455v32.054h5.219V9.032c.261.408.612.852,1.107,1.409-.012-.015,17.746,22.678,17.746,22.678l.093.118h4.994V.788h-.307Z"/>
        <path d="M202.689,5.546h5.48c4.095,0,5.546,1.056,5.546,4.034,0,1.462-.543,2.709-1.531,3.509-1.104.859-1.396.918-4.475.918h-5.02V5.546ZM202.688,18.767h7.98c.866,0,1.782.329,2.578.925l.183-.243-.178.246c1.073.775,1.714,2.183,1.714,3.764,0,1.673-.817,3.22-2.082,3.942-1.147.689-1.419.689-4.01.684h-6.185v-9.318ZM214.873,15.991c2.714-1.047,4.523-3.817,4.523-7.134,0-5.354-3.512-8.069-10.436-8.069h-11.882v32.053h13.592c5.99,0,10.174-3.643,10.174-8.857,0-3.925-2.307-6.947-5.97-7.993"/>
      </g>
      <polygon points="242.266 28.084 229.514 28.084 229.514 1.095 229.514 .788 229.208 .788 224.208 .788 223.901 .788 223.901 1.095 223.901 32.535 223.901 32.841 224.208 32.841 240.611 32.841 240.819 32.841 240.896 32.649 242.552 28.505 242.719 28.084 242.266 28.084"/>
      <path d="M264.263,19.402h-9.828l4.943-12.904,4.885,12.904ZM274.926,32.42L262.1.193l-.078-.193h-5.347l-.078.193-12.826,32.227-.167.421h5.657l.077-.192,3.475-8.555h13.07l3.539,8.558.08.189h5.592l-.168-.421Z"/>
      <path d="M284.004,5.547h5.875c4.318,0,6.316.51,8.223,2.1l.173-.207-.172.208c2.528,2.085,4.098,5.573,4.098,9.103,0,3.476-1.62,7.133-4.031,9.1-2.145,1.69-4.255,2.234-8.685,2.234h-5.481V5.547ZM303.456,28.402c2.85-3.053,4.621-7.493,4.621-11.588,0-4.007-1.917-8.882-4.56-11.592-2.958-3.025-7.166-4.434-13.244-4.434h-11.883v32.054h11.883c6.185,0,10.248-1.369,13.18-4.436l-.222-.212h0l.224.209Z"/>
      <polygon points="331.667 28.084 317.11 28.084 317.11 18.767 328.773 18.767 329.081 18.767 329.081 18.459 329.081 14.315 329.081 14.008 328.773 14.008 317.11 14.008 317.11 5.547 331.273 5.547 331.579 5.547 331.579 5.239 331.579 1.095 331.579 .788 331.273 .788 311.805 .788 311.497 .788 311.497 1.095 311.497 32.534 311.497 32.842 311.805 32.842 331.667 32.842 331.975 32.842 331.975 32.534 331.975 28.392 331.975 28.084 331.667 28.084"/>
      <polygon points="362.347 .788 335.051 .788 334.744 .788 334.744 1.095 334.744 5.239 334.744 5.546 335.051 5.546 345.925 5.546 345.925 32.534 345.925 32.842 346.233 32.842 351.167 32.842 351.474 32.842 351.474 32.534 351.474 5.546 362.347 5.546 362.654 5.546 362.654 .788 362.347 .788"/>
    </g>
  </g>
</svg>