<?xml version="1.0" encoding="UTF-8"?>
<svg id="Layer_2" data-name="Layer 2" xmlns="http://www.w3.org/2000/svg" viewBox="0 0 40 37.3">
  <defs>
    <style>
      .cls-1 {
        fill: #990101;
      }
    </style>
  </defs>
  <g id="Layer_1-2" data-name="Layer 1">
    <path class="cls-1" d="M35.975,33.112c-.691,0-1.59-.899-1.59-3.602v-15.206c0-2.119.689-3.336,2.597-4.556l3.018-1.906-.583-.902c-.847.531-1.748,1.112-2.224,1.112-1.908,0-.794-8.053-7.259-8.053-1.906,0-3.602.794-4.979,2.384-.902-1.485-2.808-2.384-4.664-2.384-2.011,0-3.76.741-5.137,2.384-1.803-1.908-3.657-2.384-6.252-2.384C4.078,0,.053,3.602.053,7.842c0,3.656,2.487,5.583,4.227,7.52-1.947.469-4.28,1.969-4.28,3.976,0,1.906,1.325,3.018,3.444,3.018,2.702,0,5.51-2.648,5.51-6.57,0-5.51-4.503-7.892-4.503-11.442,0-1.59,1.165-2.81,2.648-2.81,1.856,0,3.126,1.378,3.126,5.828v12.982c0,4.927-1.007,8.689-6.039,13.986l-2.066,2.172.954.796.954-1.062c.741-.847,1.748-1.536,2.648-1.536,2.279,0,2.86,2.542,4.398,2.542s2.542-3.497,4.661-3.497c2.595,0,3.762,3.497,5.51,3.497.741,0,1.112-.265,2.703-1.641l1.748-1.538,1.59-1.483-.744-.794c-1.165,1.007-1.483,1.27-1.959,1.27-1.007,0-1.801-2.49-4.451-2.49-.902,0-1.748.265-2.65.636,6.517-5.986,8.902-10.597,8.902-15.842,0-5.35-1.007-7.947-1.007-10.913,0-1.272.741-2.279,1.748-2.279,3.021,0,.584,7.682,7.682,7.682l-2.066,1.325c-4.133,2.65-4.714,4.503-4.714,7.153v12.769c0,1.483.263,2.437,1.007,3.336l1.323,1.696c.584.796,1.378,1.112,2.014,1.112.741,0,1.43-.265,2.968-1.588l1.748-1.538,1.588-1.483-.741-.794c-1.112.954-1.483,1.27-1.959,1.27ZM3.654,21.14c-1.112,0-2.011-.741-2.011-1.856,0-1.984,2.331-2.682,3.458-2.898.499.722.833,1.483.833,2.37,0,1.325-1.06,2.384-2.279,2.384ZM19.549,20.291c0,4.982-1.22,8.108-4.556,12.398-1.007-1.325-2.172-2.119-3.762-2.119-.952,0-1.906.265-2.966.636,6.357-5.67,8.794-10.545,8.794-15.895,0-4.822-1.378-8.265-1.378-11.021,0-1.323.741-2.119,1.801-2.119,1.167,0,2.066.902,2.066,6.252v11.867Z"/>
  </g>
</svg>